# xmcd
#
# Track frame offsets:
#	150
#	12356
#	27291
#	38704
#	48736
#	64512
#	75769
#	89325
#	100403
#	113890
#	126805
#	138426
#	149560
#	162729
#	174796
#	185313
#	196040
#	209053
#	222304
#	234787
#	246692
#	258503
#	271311
#	283132
#	293337
#
# Disc length: 4106 seconds
# Revision: 0
# Processed by: cddbd v1.5.2PL0 Copyright (c) Steve Scherf et al.
# Submitted via: dBpowerAMP V12.0
#
DISCID=6f100819
DTITLE=Various Artist - Let Me Tell You About The Blues - Atlanta
DYEAR=1949
DGENRE=Blues
TTITLE0=Pinetop Slim - Applejack Boogie
TTITLE1=Curley Weaver - Brown Skin Woman
TTITLE2=Blind Willie McTell - Love Changin' Blues
TTITLE3=Frank Edwards - Gotta Get Together
TTITLE4=David Wylie - You're Gonna Weep And Moan
TTITLE5=Fred Jackson - Duck Fever
TTITLE6=Billy Wright - Stacked Deck
TTITLE7=Blow Top Lynn - Reliefin' Blues
TTITLE8=Tommy Brown - V-8 Baby
TTITLE9=Chuck Willis - It Ain't Right To Treat Me Wrong
TTITLE10=Joyce Jackson - Body Rocking Daddy
TTITLE11=Waymon Brown - Barefoot Susie
TTITLE12=Roy Mays Orchestra - Royal Peacock Boogie
TTITLE13=Willie Brown - Korea Blues
TTITLE14=Little Richard - Get Rich Quick
TTITLE15=Piano Red - Hey Good Lookin'
TTITLE16=Junior Tamplin - Under The Viaduct (In Atlanta, GA)
TTITLE17=Little Richard - Thinkin' 'Bout My Mother
TTITLE18=Melvin Smith - Everybody's Got The Blues
TTITLE19=Zilla Mays and The Blues Caravan - Nite Shift Blues
TTITLE20=H-Bomb Ferguson - You Made Me Baby
TTITLE21=Billy Wright - Four Cold, Cold Walls
TTITLE22=Arthur ''Big Boy'' Crudup - If You Ever Been To Georgia
TTITLE23=Papa Lightfoot - Mean Old Train
TTITLE24=Piano Red - Wrong Yo-Yo
EXTD=
EXTT0=
EXTT1=
EXTT2=
EXTT3=
EXTT4=
EXTT5=
EXTT6=
EXTT7=
EXTT8=
EXTT9=
EXTT10=
EXTT11=
EXTT12=
EXTT13=
EXTT14=
EXTT15=
EXTT16=
EXTT17=
EXTT18=
EXTT19=
EXTT20=
EXTT21=
EXTT22=
EXTT23=
EXTT24=
PLAYORDER=
